<svg width="20" height="24" viewBox="0 0 20 24" fill="none" xmlns="http://www.w3.org/2000/svg">
<path d="M9.25063e-05 9.99517C-0.00177426 10.4324 0.024614 10.8693 0.0790923 11.3032C0.325664 13.2323 1.13152 15.0471 2.39726 16.5236C3.663 18.0001 5.33326 19.0739 7.20202 19.6124C8.08647 19.866 9.0016 19.9967 9.92168 20.0009C10.6212 20.0042 11.3192 19.9343 12.0042 19.7924C13.3097 19.5175 14.5471 18.984 15.6432 18.2233C16.7393 17.4626 17.672 16.4902 18.3863 15.3633C18.4782 15.2182 18.5663 15.0693 18.6518 14.9204C19.0472 14.2183 19.3555 13.4707 19.57 12.6941C19.6425 12.4351 19.6995 12.1631 19.7565 11.8912C19.8135 11.6192 19.8484 11.3433 19.8769 11.0623C19.9106 10.7385 19.9279 10.4109 19.9287 10.0794C19.931 9.67993 19.9089 9.28074 19.8627 8.884C19.8316 8.60944 19.7884 8.33877 19.7332 8.07198C19.3451 6.14737 18.3975 4.38014 17.0092 2.99184C15.6209 1.60354 13.8537 0.655947 11.929 0.267849C11.6623 0.213456 11.3903 0.170719 11.1157 0.138342C10.7469 0.0953096 10.3759 0.0732581 10.0046 0.0722929C9.6486 0.0699458 9.29277 0.0872395 8.93871 0.124096C8.65898 0.151292 8.38183 0.192735 8.10986 0.244538C7.8379 0.296341 7.56982 0.35721 7.30562 0.429734C6.52875 0.644086 5.78109 0.952891 5.07938 1.34924C4.92915 1.43342 4.78022 1.52148 4.63517 1.60825C3.03767 2.62263 1.75984 4.06839 0.949384 5.7784C0.615102 6.48412 0.365991 7.2271 0.207305 7.99169C0.0712733 8.65089 0.0018537 9.32209 9.25063e-05 9.99517Z" fill="#FFDF00"/>
<path opacity="0.1" d="M9.25063e-05 9.99517C-0.00177426 10.4324 0.024614 10.8693 0.0790923 11.3032C0.325664 13.2323 1.13152 15.0471 2.39726 16.5236C3.663 18.0001 5.33326 19.0739 7.20202 19.6124C8.08647 19.866 9.0016 19.9967 9.92168 20.0009C10.6212 20.0042 11.3192 19.9343 12.0042 19.7924C13.3097 19.5175 14.5471 18.984 15.6432 18.2233C16.7393 17.4626 17.672 16.4902 18.3863 15.3633C18.4782 15.2182 18.5663 15.0693 18.6518 14.9204C19.0472 14.2183 19.3555 13.4707 19.57 12.6941C19.6425 12.4351 19.6995 12.1631 19.7565 11.8912C19.8135 11.6192 19.8484 11.3433 19.8769 11.0623C19.9106 10.7385 19.9279 10.4109 19.9287 10.0794C19.931 9.67993 19.9089 9.28074 19.8627 8.884C19.8316 8.60944 19.7884 8.33877 19.7332 8.07198C19.3451 6.14737 18.3975 4.38014 17.0092 2.99184C15.6209 1.60354 13.8537 0.655947 11.929 0.267849C11.6623 0.213456 11.3903 0.170719 11.1157 0.138342C10.7469 0.0953096 10.3759 0.0732581 10.0046 0.0722929C9.6486 0.0699458 9.29277 0.0872395 8.93871 0.124096C8.65898 0.151292 8.38183 0.192735 8.10986 0.244538C7.8379 0.296341 7.56982 0.35721 7.30562 0.429734C6.52875 0.644086 5.78109 0.952891 5.07938 1.34924C4.92915 1.43342 4.78022 1.52148 4.63517 1.60825C3.03767 2.62263 1.75984 4.06839 0.949384 5.7784C0.615102 6.48412 0.365991 7.2271 0.207305 7.99169C0.0712733 8.65089 0.0018537 9.32209 9.25063e-05 9.99517Z" fill="white"/>
<path opacity="0.05" d="M19.539 7.27551C19.6141 7.53453 19.6801 7.8039 19.7345 8.07587C19.7889 8.34784 19.8317 8.61333 19.864 8.88788C19.9103 9.28463 19.9323 9.68382 19.9301 10.0832C19.9301 10.4148 19.9128 10.7424 19.8783 11.0662C19.8498 11.3477 19.8096 11.6239 19.7578 11.8951C19.706 12.167 19.6439 12.4338 19.5713 12.698C19.3559 13.472 19.0471 14.217 18.6518 14.9165C18.5664 15.0654 18.4783 15.2143 18.3863 15.3594C17.4855 16.7877 16.2356 17.963 14.7546 18.7744C13.2737 19.5858 11.6104 20.0066 9.92173 19.9971C9.55818 19.9947 9.19502 19.9727 8.83386 19.931L19.539 7.27551Z" fill="black"/>
<path opacity="0.05" d="M19.3848 13.2899C19.1903 13.8532 18.945 14.3976 18.6518 14.9165C18.5663 15.0654 18.4783 15.2143 18.3863 15.3594C17.4811 16.7873 16.2286 17.9623 14.7458 18.7745L19.3848 13.2899Z" fill="black"/>
<path opacity="0.15" d="M18.1766 4.39139C18.4974 4.85673 18.7773 5.34897 19.0132 5.86259L7.35749 19.6539L7.19949 19.6111C6.7114 19.4681 6.23512 19.2876 5.7749 19.0711L18.1766 4.39139Z" fill="white"/>
<path opacity="0.15" d="M14.3651 1.0941C14.8877 1.35262 15.3869 1.65594 15.8571 2.00065L3.02414 17.1815C2.60599 16.7749 2.22422 16.3325 1.88318 15.8593L14.3651 1.0941Z" fill="white"/>
<path opacity="0.15" d="M12.9093 0.515213C13.2176 0.611049 13.5197 0.720698 13.8159 0.844162L1.54502 15.3594C1.37407 15.0887 1.21219 14.8116 1.06714 14.5241L12.9093 0.515213Z" fill="white"/>
<path opacity="0.15" d="M0.0285645 9.31655C0.0415152 9.13265 0.0609411 8.95005 0.0829575 8.77003C0.0907279 8.70916 0.0972033 8.64829 0.106269 8.58872C0.115334 8.52915 0.1244 8.45921 0.134761 8.40353C0.158072 8.27402 0.181383 8.13156 0.20858 7.99687C0.60224 6.11163 1.53491 4.38127 2.89328 3.01601C3.42008 2.48479 4.00479 2.01433 4.63645 1.61344C4.7815 1.52149 4.93043 1.43342 5.08066 1.35442C5.78236 0.958074 6.53002 0.649269 7.3069 0.434917C7.40532 0.40772 7.50375 0.384409 7.60347 0.359802L0.0285645 9.31655Z" fill="white"/>
<path d="M2.53967 10.0366C2.53941 11.9197 3.25482 13.7326 4.54104 15.108C5.82725 16.4834 7.58813 17.3186 9.46704 17.4445C9.63022 17.4548 9.79858 17.4613 9.96564 17.4613C11.918 17.4355 13.7816 16.6419 15.1531 15.2521C16.5246 13.8624 17.2936 11.9885 17.2936 10.036C17.2936 8.08346 16.5246 6.20951 15.1531 4.8198C13.7816 3.43008 11.918 2.63643 9.96564 2.61064C9.79858 2.61064 9.63022 2.61064 9.46704 2.62748C7.58812 2.75392 5.82742 3.58948 4.5413 4.96505C3.25517 6.34062 2.53969 8.15345 2.53967 10.0366Z" fill="#FFDF00"/>
<path opacity="0.4" d="M2.53967 10.0366C2.53941 11.9197 3.25482 13.7326 4.54104 15.108C5.82725 16.4834 7.58813 17.3186 9.46704 17.4445C9.63022 17.4548 9.79858 17.4613 9.96564 17.4613C11.918 17.4355 13.7816 16.6419 15.1531 15.2521C16.5246 13.8624 17.2936 11.9885 17.2936 10.036C17.2936 8.08346 16.5246 6.20951 15.1531 4.8198C13.7816 3.43008 11.918 2.63643 9.96564 2.61064C9.79858 2.61064 9.63022 2.61064 9.46704 2.62748C7.58812 2.75392 5.82742 3.58948 4.5413 4.96505C3.25517 6.34062 2.53969 8.15345 2.53967 10.0366Z" fill="black"/>
<path d="M2.87 10.0366C2.87 10.1661 2.87 10.2956 2.88036 10.4148C2.97262 12.1456 3.69544 13.7828 4.91232 15.0171C6.1292 16.2513 7.75591 16.9974 9.48525 17.1142L9.58238 17.1207C9.71189 17.1207 9.83362 17.131 9.96054 17.131C11.7388 17.1345 13.4534 16.4692 14.764 15.2673C16.0746 14.0654 16.8854 12.4146 17.0355 10.6427C17.0537 10.442 17.0615 10.2399 17.0615 10.034C17.0615 9.82811 17.055 9.65975 17.0407 9.47585C17.0118 9.0946 16.9511 8.71642 16.8594 8.34525C16.549 7.08569 15.8998 5.93514 14.982 5.01831C14.0643 4.10148 12.9131 3.45336 11.6532 3.14422C11.282 3.05249 10.9039 2.99184 10.5226 2.96291C10.3387 2.94866 10.1522 2.94218 9.96443 2.94218C9.80513 2.94218 9.64584 2.94218 9.48913 2.95773C9.4451 2.95773 9.40107 2.95772 9.35963 2.96809C8.326 3.05451 7.32428 3.36851 6.42628 3.88759C5.34537 4.50922 4.44769 5.40514 3.82394 6.48483C3.20018 7.56451 2.87246 8.78971 2.87388 10.0366H2.87Z" fill="#FFDF00"/>
<path opacity="0.5" d="M2.87 10.0366C2.87 10.1661 2.87 10.2956 2.88036 10.4148C2.97262 12.1456 3.69544 13.7828 4.91232 15.0171C6.1292 16.2513 7.75591 16.9974 9.48525 17.1142L9.58238 17.1207C9.71189 17.1207 9.83362 17.131 9.96054 17.131C11.7388 17.1345 13.4534 16.4692 14.764 15.2673C16.0746 14.0654 16.8854 12.4146 17.0355 10.6427C17.0537 10.442 17.0615 10.2399 17.0615 10.034C17.0615 9.82811 17.055 9.65975 17.0407 9.47585C17.0118 9.0946 16.9511 8.71642 16.8594 8.34525C16.549 7.08569 15.8998 5.93514 14.982 5.01831C14.0643 4.10148 12.9131 3.45336 11.6532 3.14422C11.282 3.05249 10.9039 2.99184 10.5226 2.96291C10.3387 2.94866 10.1522 2.94218 9.96443 2.94218C9.80513 2.94218 9.64584 2.94218 9.48913 2.95773C9.4451 2.95773 9.40107 2.95772 9.35963 2.96809C8.326 3.05451 7.32428 3.36851 6.42628 3.88759C5.34537 4.50922 4.44769 5.40514 3.82394 6.48483C3.20018 7.56451 2.87246 8.78971 2.87388 10.0366H2.87Z" fill="black"/>
<path d="M14.9634 15.0706C16.1604 13.8892 16.8954 12.3187 17.0356 10.6427C17.0537 10.442 17.0628 10.2399 17.0628 10.034C17.0628 9.82811 17.055 9.65975 17.0407 9.47585C17.0118 9.0946 16.9512 8.71642 16.8594 8.34525C16.549 7.08569 15.8998 5.93514 14.982 5.01831C14.0643 4.10148 12.9131 3.45336 11.6532 3.14422C11.282 3.05249 10.9039 2.99184 10.5226 2.96291C10.3387 2.94866 10.1522 2.94218 9.96444 2.94218C9.80515 2.94218 9.64585 2.94218 9.48915 2.95773C9.44512 2.95773 9.40109 2.95772 9.35964 2.96809C8.32601 3.05451 7.3243 3.36851 6.42629 3.88759C6.11503 4.06989 5.81804 4.27553 5.53787 4.50275C4.87479 5.16004 4.34882 5.94244 3.99045 6.80458C3.63208 7.66671 3.44845 8.59141 3.45021 9.52506C3.45021 9.65457 3.45021 9.7776 3.46186 9.90322C3.55357 11.6342 4.27622 13.2717 5.4932 14.5061C6.71019 15.7405 8.33722 16.4864 10.0668 16.6027H10.1626C10.2921 16.6091 10.4151 16.613 10.542 16.613C12.1496 16.6146 13.7093 16.0662 14.9621 15.0589L14.9634 15.0706Z" fill="#FFDF00"/>
<path opacity="0.25" d="M14.9634 15.0706C16.1604 13.8892 16.8954 12.3187 17.0356 10.6427C17.0537 10.442 17.0628 10.2399 17.0628 10.034C17.0628 9.82811 17.055 9.65975 17.0407 9.47585C17.0118 9.0946 16.9512 8.71643 16.8594 8.34525C16.549 7.08569 15.8998 5.93514 14.982 5.01831C14.0643 4.10148 12.9131 3.45336 11.6532 3.14422C11.282 3.05249 10.9039 2.99184 10.5226 2.96291C10.3387 2.94866 10.1522 2.94218 9.96444 2.94218C9.80515 2.94218 9.64585 2.94218 9.48915 2.95773C9.44512 2.95773 9.40109 2.95772 9.35964 2.96809C8.32601 3.05451 7.3243 3.36851 6.42629 3.88759C6.11503 4.06989 5.81804 4.27553 5.53787 4.50275C4.87479 5.16004 4.34882 5.94244 3.99045 6.80458C3.63208 7.66671 3.44845 8.59141 3.45021 9.52506C3.45021 9.65457 3.45021 9.7776 3.46186 9.90322C3.55357 11.6342 4.27621 13.2717 5.4932 14.5061C6.71019 15.7405 8.33722 16.4864 10.0668 16.6027H10.1626C10.2921 16.6091 10.4151 16.613 10.542 16.613C12.1496 16.6146 13.7093 16.0662 14.9621 15.0589L14.9634 15.0706Z" fill="black"/>
<path d="M5.08069 1.34924C9.36869 -0.871821 12.8512 0.283388 15.1823 1.66912C18.5495 3.92903 20.6734 7.71454 19.5117 12.7174V12.7071C19.0683 14.3711 18.1956 15.8894 16.9812 17.1103C18.2351 15.8857 19.1468 14.3543 19.6257 12.6682V12.6773C20.6967 8.53303 19.3498 5.24224 17.1029 2.92016C14.6953 0.700403 10.6158 -1.49216 5.08069 1.34924Z" fill="#F5F5F5"/>
<path opacity="0.15" d="M6.052 12.1567C6.11936 12.3546 6.20932 12.544 6.32008 12.7213L7.02719 11.9741L6.052 12.1567Z" fill="white"/>
<path d="M3.59139 4.06761L3.75587 1.90224L3.92034 4.06761L6.08571 4.23208L3.92034 4.39785L3.75587 6.56192L3.59139 4.39785L1.42603 4.23208L3.59139 4.06761Z" fill="white"/>
<path d="M5.28913 5.84444L5.36942 4.79413L5.44842 5.84444L6.49873 5.92344L5.44842 6.00373L5.36942 7.05274L5.28913 6.00373L4.24011 5.92344L5.28913 5.84444Z" fill="white"/>
<g filter="url(#filter0_d_115_3861)">
<path d="M10.0455 9.33688L12.2326 9.37027L12.2066 11.0755L10.0194 11.0421L9.94397 15.9847L8.2478 15.9588L8.4303 4.00381L12.9134 4.07225L12.8874 5.77747L10.0976 5.73488L10.0455 9.33688Z" fill="#E5C800"/>
<path d="M9.96932 9.25883L9.96741 9.38382L10.0924 9.38573L12.209 9.41804L12.1824 11.1606L10.0658 11.1283L9.94081 11.1264L9.9389 11.2513L9.86857 15.8585L8.37252 15.8357L8.30735 4.12693L12.7869 4.19532L12.7641 5.68879L10.1494 5.64887L10.0245 5.64696L10.0225 5.77195L9.96932 9.25883Z" stroke="white" stroke-width="0.25"/>
</g>
<defs>
<filter id="filter0_d_115_3861" x="4.18164" y="4" width="12.7322" height="19.9854" filterUnits="userSpaceOnUse" color-interpolation-filters="sRGB">
<feFlood flood-opacity="0" result="BackgroundImageFix"/>
<feColorMatrix in="SourceAlpha" type="matrix" values="0 0 0 0 0 0 0 0 0 0 0 0 0 0 0 0 0 0 127 0" result="hardAlpha"/>
<feOffset dy="4"/>
<feGaussianBlur stdDeviation="2"/>
<feComposite in2="hardAlpha" operator="out"/>
<feColorMatrix type="matrix" values="0 0 0 0 0 0 0 0 0 0 0 0 0 0 0 0 0 0 0.25 0"/>
<feBlend mode="normal" in2="BackgroundImageFix" result="effect1_dropShadow_115_3861"/>
<feBlend mode="normal" in="SourceGraphic" in2="effect1_dropShadow_115_3861" result="shape"/>
</filter>
</defs>
</svg>
