<svg width="16" height="21" viewBox="0 0 16 21" fill="none" xmlns="http://www.w3.org/2000/svg">
<path d="M7.40051e-05 7.99572C-0.0014194 8.34552 0.0196912 8.69506 0.0632738 9.04214C0.260531 10.5854 0.905216 12.0372 1.91781 13.2185C2.9304 14.3997 4.2666 15.2587 5.76161 15.6895C6.46917 15.8924 7.20128 15.997 7.93734 16.0003C8.49697 16.0029 9.05533 15.947 9.60333 15.8335C10.6478 15.6136 11.6377 15.1868 12.5146 14.5782C13.3914 13.9697 14.1376 13.1917 14.709 12.2902C14.7826 12.1742 14.8531 12.055 14.9214 11.9359C15.2378 11.3743 15.4844 10.7762 15.656 10.1549C15.714 9.94766 15.7596 9.73008 15.8052 9.51251C15.8508 9.29494 15.8788 9.07426 15.9015 8.84943C15.9285 8.59042 15.9423 8.32829 15.943 8.06306C15.9448 7.74352 15.9271 7.42417 15.8901 7.10677C15.8653 6.88713 15.8307 6.67059 15.7865 6.45716C15.4761 4.91747 14.718 3.50369 13.6073 2.39305C12.4967 1.28241 11.0829 0.524335 9.54324 0.213857C9.32981 0.170342 9.11224 0.136152 8.89259 0.110251C8.59752 0.075825 8.30073 0.0581838 8.00365 0.0574116C7.71888 0.055534 7.43422 0.0693689 7.15097 0.0988539C6.92718 0.120611 6.70546 0.153765 6.48789 0.195208C6.27032 0.23665 6.05585 0.285345 5.8445 0.343365C5.223 0.514846 4.62487 0.761891 4.06351 1.07897C3.94332 1.14631 3.82418 1.21676 3.70814 1.28618C2.43013 2.09768 1.40787 3.25429 0.759507 4.6223C0.492082 5.18687 0.292793 5.78126 0.165844 6.39293C0.0570186 6.92029 0.00148296 7.45725 7.40051e-05 7.99572Z" fill="#FFDF00"/>
<path opacity="0.1" d="M7.40051e-05 7.99572C-0.0014194 8.34552 0.0196912 8.69506 0.0632738 9.04214C0.260531 10.5854 0.905216 12.0372 1.91781 13.2185C2.9304 14.3997 4.2666 15.2587 5.76161 15.6895C6.46917 15.8924 7.20128 15.997 7.93734 16.0003C8.49697 16.0029 9.05533 15.947 9.60333 15.8335C10.6478 15.6136 11.6377 15.1868 12.5146 14.5782C13.3914 13.9697 14.1376 13.1917 14.709 12.2902C14.7826 12.1742 14.8531 12.055 14.9214 11.9359C15.2378 11.3743 15.4844 10.7762 15.656 10.1549C15.714 9.94766 15.7596 9.73008 15.8052 9.51251C15.8508 9.29494 15.8788 9.07426 15.9015 8.84943C15.9285 8.59042 15.9423 8.32829 15.943 8.06306C15.9448 7.74352 15.9271 7.42417 15.8901 7.10677C15.8653 6.88713 15.8307 6.67059 15.7865 6.45716C15.4761 4.91747 14.718 3.50369 13.6073 2.39305C12.4967 1.28241 11.0829 0.524335 9.54324 0.213857C9.32981 0.170342 9.11224 0.136152 8.89259 0.110251C8.59752 0.075825 8.30073 0.0581838 8.00365 0.0574116C7.71888 0.055534 7.43422 0.0693689 7.15097 0.0988539C6.92718 0.120611 6.70546 0.153765 6.48789 0.195208C6.27032 0.23665 6.05585 0.285345 5.8445 0.343365C5.223 0.514846 4.62487 0.761891 4.06351 1.07897C3.94332 1.14631 3.82418 1.21676 3.70814 1.28618C2.43013 2.09768 1.40787 3.25429 0.759507 4.6223C0.492082 5.18687 0.292793 5.78126 0.165844 6.39293C0.0570186 6.92029 0.00148296 7.45725 7.40051e-05 7.99572Z" fill="white"/>
<path opacity="0.05" d="M15.6313 5.81999C15.6914 6.0272 15.7442 6.24271 15.7877 6.46028C15.8312 6.67785 15.8654 6.89024 15.8913 7.10989C15.9283 7.42728 15.946 7.74663 15.9442 8.06617C15.9442 8.3314 15.9303 8.59353 15.9027 8.85255C15.8799 9.07772 15.8478 9.29874 15.8064 9.51562C15.7649 9.7332 15.7152 9.94663 15.6572 10.158C15.4848 10.7772 15.2378 11.3732 14.9216 11.9328C14.8532 12.0519 14.7827 12.171 14.7092 12.2871C13.9885 13.4298 12.9886 14.37 11.8038 15.0191C10.619 15.6683 9.28841 16.0049 7.93748 15.9972C7.64664 15.9954 7.35611 15.9777 7.06718 15.9444L15.6313 5.81999Z" fill="black"/>
<path opacity="0.05" d="M15.508 10.6315C15.3525 11.0821 15.1562 11.5177 14.9216 11.9328C14.8533 12.0519 14.7828 12.1711 14.7092 12.2871C13.9851 13.4294 12.9831 14.3694 11.7969 15.0192L15.508 10.6315Z" fill="black"/>
<path opacity="0.15" d="M14.5416 3.51269C14.7983 3.88496 15.0222 4.27875 15.2109 4.68965L5.88638 15.7227L5.75998 15.6885C5.36952 15.5741 4.98849 15.4296 4.62032 15.2564L14.5416 3.51269Z" fill="white"/>
<path opacity="0.15" d="M11.4918 0.87487C11.9099 1.08169 12.3092 1.32434 12.6854 1.60011L2.41903 13.7448C2.08451 13.4195 1.77909 13.0656 1.50626 12.687L11.4918 0.87487Z" fill="white"/>
<path opacity="0.15" d="M10.3269 0.411736C10.5734 0.488404 10.8152 0.576124 11.0521 0.674895L1.23543 12.2871C1.09867 12.0705 0.969158 11.8488 0.853119 11.6188L10.3269 0.411736Z" fill="white"/>
<path opacity="0.15" d="M0.0234375 7.45282C0.0337981 7.3057 0.0493389 7.15962 0.0669519 7.01561C0.0731683 6.96691 0.0783486 6.91822 0.085601 6.87056C0.0928535 6.8229 0.100106 6.76695 0.108395 6.7224C0.127044 6.61879 0.145693 6.50483 0.16745 6.39708C0.482378 4.88888 1.22851 3.5046 2.31521 2.41238C2.73665 1.98741 3.20442 1.61104 3.70974 1.29033C3.82578 1.21677 3.94493 1.14632 4.06511 1.08312C4.62648 0.76604 5.22461 0.518995 5.8461 0.347514C5.92485 0.325757 6.00358 0.307107 6.08336 0.287422L0.0234375 7.45282Z" fill="white"/>
<path d="M2.03125 8.02888C2.03104 9.53538 2.60337 10.9857 3.63234 12.086C4.66131 13.1863 6.07001 13.8545 7.57314 13.9552C7.70369 13.9634 7.83838 13.9686 7.97203 13.9686C9.53389 13.948 11.0248 13.3131 12.122 12.2013C13.2192 11.0895 13.8344 9.59037 13.8344 8.02836C13.8344 6.46636 13.2192 4.9672 12.122 3.85543C11.0248 2.74366 9.53389 2.10873 7.97203 2.0881C7.83838 2.0881 7.70369 2.0881 7.57314 2.10157C6.07001 2.20273 4.66145 2.87118 3.63255 3.97163C2.60365 5.07209 2.03127 6.52235 2.03125 8.02888Z" fill="#FFDF00"/>
<path opacity="0.4" d="M2.03125 8.02888C2.03104 9.53538 2.60337 10.9857 3.63234 12.086C4.66131 13.1863 6.07001 13.8545 7.57314 13.9552C7.70369 13.9634 7.83838 13.9686 7.97203 13.9686C9.53389 13.948 11.0248 13.3131 12.122 12.2013C13.2192 11.0895 13.8344 9.59037 13.8344 8.02836C13.8344 6.46636 13.2192 4.9672 12.122 3.85543C11.0248 2.74366 9.53389 2.10873 7.97203 2.0881C7.83838 2.0881 7.70369 2.0881 7.57314 2.10157C6.07001 2.20273 4.66145 2.87118 3.63255 3.97163C2.60365 5.07209 2.03127 6.52235 2.03125 8.02888Z" fill="black"/>
<path d="M2.29532 8.02886C2.29532 8.13247 2.29532 8.23608 2.30361 8.33139C2.37742 9.71606 2.95567 11.0258 3.92918 12.0132C4.90268 13.0006 6.20405 13.5975 7.58752 13.6909L7.66523 13.6961C7.76883 13.6961 7.86622 13.7044 7.96776 13.7044C9.39038 13.7071 10.762 13.1749 11.8105 12.2134C12.859 11.2519 13.5077 9.93128 13.6278 8.51374C13.6423 8.35315 13.6485 8.19152 13.6485 8.02679C13.6485 7.86206 13.6433 7.72737 13.6319 7.58025C13.6088 7.27525 13.5602 6.97271 13.4869 6.67577C13.2385 5.66812 12.7191 4.74768 11.9849 4.01422C11.2507 3.28075 10.3298 2.76226 9.32189 2.51494C9.02495 2.44156 8.72241 2.39304 8.41741 2.36989C8.27029 2.3585 8.12109 2.35332 7.97086 2.35332C7.84343 2.35332 7.71599 2.35332 7.59063 2.36575C7.5554 2.36575 7.52018 2.36575 7.48702 2.37404C6.66012 2.44318 5.85875 2.69438 5.14034 3.10964C4.27562 3.60695 3.55747 4.32368 3.05847 5.18743C2.55947 6.05118 2.29729 7.03134 2.29843 8.02886H2.29532Z" fill="#FFDF00"/>
<path opacity="0.5" d="M2.29532 8.02886C2.29532 8.13247 2.29532 8.23608 2.30361 8.33139C2.37742 9.71606 2.95567 11.0258 3.92918 12.0132C4.90268 13.0006 6.20405 13.5975 7.58752 13.6909L7.66523 13.6961C7.76883 13.6961 7.86622 13.7044 7.96776 13.7044C9.39038 13.7071 10.762 13.1749 11.8105 12.2134C12.859 11.2519 13.5077 9.93128 13.6278 8.51374C13.6423 8.35315 13.6485 8.19152 13.6485 8.02679C13.6485 7.86206 13.6433 7.72737 13.6319 7.58025C13.6088 7.27525 13.5602 6.97271 13.4869 6.67577C13.2385 5.66812 12.7191 4.74768 11.9849 4.01422C11.2507 3.28075 10.3298 2.76226 9.32189 2.51494C9.02495 2.44156 8.72241 2.39304 8.41741 2.36989C8.27029 2.3585 8.12109 2.35332 7.97086 2.35332C7.84343 2.35332 7.71599 2.35332 7.59063 2.36575C7.5554 2.36575 7.52018 2.36575 7.48702 2.37404C6.66012 2.44318 5.85875 2.69438 5.14034 3.10964C4.27562 3.60695 3.55747 4.32368 3.05847 5.18743C2.55947 6.05118 2.29729 7.03134 2.29843 8.02886H2.29532Z" fill="black"/>
<path d="M11.97 12.056C12.9275 11.1109 13.5155 9.85449 13.6277 8.51374C13.6422 8.35315 13.6494 8.19152 13.6494 8.02679C13.6494 7.86206 13.6432 7.72737 13.6318 7.58025C13.6087 7.27525 13.5601 6.97271 13.4868 6.67577C13.2384 5.66812 12.719 4.74768 11.9848 4.01422C11.2506 3.28075 10.3297 2.76226 9.32179 2.51494C9.02485 2.44156 8.72231 2.39304 8.41731 2.36989C8.27019 2.3585 8.121 2.35332 7.97077 2.35332C7.84333 2.35332 7.7159 2.35332 7.59053 2.36575C7.55531 2.36575 7.52008 2.36575 7.48693 2.37404C6.66002 2.44318 5.85865 2.69438 5.14025 3.10964C4.89124 3.25548 4.65364 3.42 4.42951 3.60177C3.89905 4.1276 3.47827 4.75352 3.19157 5.44323C2.90488 6.13294 2.75797 6.8727 2.75938 7.61962C2.75938 7.72322 2.75938 7.82165 2.7687 7.92215C2.84207 9.30696 3.42018 10.6169 4.39378 11.6045C5.36737 12.592 6.66899 13.1887 8.05262 13.2817H8.12929C8.23289 13.2869 8.33132 13.29 8.43285 13.29C9.7189 13.2913 10.9667 12.8526 11.9689 12.0467L11.97 12.056Z" fill="#FFDF00"/>
<path opacity="0.25" d="M11.97 12.056C12.9275 11.1109 13.5155 9.85449 13.6277 8.51374C13.6422 8.35315 13.6494 8.19152 13.6494 8.02679C13.6494 7.86206 13.6432 7.72737 13.6318 7.58025C13.6087 7.27525 13.5601 6.97271 13.4868 6.67577C13.2384 5.66812 12.719 4.74768 11.9848 4.01422C11.2506 3.28075 10.3297 2.76226 9.32179 2.51494C9.02485 2.44156 8.72231 2.39304 8.41731 2.36989C8.27019 2.3585 8.121 2.35332 7.97077 2.35332C7.84333 2.35332 7.7159 2.35332 7.59053 2.36575C7.55531 2.36575 7.52008 2.36575 7.48693 2.37404C6.66002 2.44318 5.85865 2.69438 5.14025 3.10964C4.89124 3.25548 4.65364 3.42 4.42951 3.60177C3.89905 4.1276 3.47827 4.75352 3.19157 5.44323C2.90488 6.13294 2.75797 6.8727 2.75938 7.61962C2.75938 7.72322 2.75938 7.82165 2.7687 7.92215C2.84207 9.30696 3.42018 10.6169 4.39378 11.6045C5.36737 12.592 6.66899 13.1887 8.05262 13.2817H8.12929C8.23289 13.2869 8.33132 13.29 8.43285 13.29C9.71889 13.2913 10.9667 12.8526 11.9689 12.0467L11.97 12.056Z" fill="black"/>
<path d="M4.06406 1.07897C7.49446 -0.697877 10.2804 0.226291 12.1453 1.33488C14.8391 3.1428 16.5382 6.17121 15.6089 10.1735V10.1652C15.2541 11.4964 14.556 12.7111 13.5844 13.6878C14.5876 12.7082 15.317 11.483 15.7001 10.1341V10.1414C16.5569 6.826 15.4794 4.19337 13.6818 2.33571C11.7558 0.559903 8.49218 -1.19415 4.06406 1.07897Z" fill="#F5F5F5"/>
<path opacity="0.15" d="M4.84219 9.72491C4.89608 9.88323 4.96805 10.0348 5.05666 10.1766L5.62235 9.57883L4.84219 9.72491Z" fill="white"/>
<path d="M2.87292 3.25365L3.0045 1.52135L3.13608 3.25365L4.86837 3.38523L3.13608 3.51785L3.0045 5.2491L2.87292 3.51785L1.14062 3.38523L2.87292 3.25365Z" fill="white"/>
<path d="M4.23139 4.67513L4.29563 3.83488L4.35883 4.67513L5.19907 4.73833L4.35883 4.80257L4.29563 5.64178L4.23139 4.80257L3.39218 4.73833L4.23139 4.67513Z" fill="white"/>
<g filter="url(#filter0_d_115_116)">
<path d="M8.03627 7.46907L9.786 7.49578L9.76517 8.85995L8.01544 8.83324L7.95508 12.7874L6.59814 12.7666L6.74414 3.20262L10.3306 3.25737L10.3098 4.62154L8.07802 4.58747L8.03627 7.46907Z" fill="#E5C800"/>
<path d="M7.95084 7.40625L7.94894 7.53124L8.07392 7.53315L9.74219 7.55861L9.72167 8.90265L8.0534 8.87718L7.92842 8.87527L7.92651 9.00026L7.87063 12.661L6.72327 12.6435L6.67141 3.3265L10.2046 3.38044L10.1871 4.52522L8.12032 4.49367L7.99533 4.49176L7.99343 4.61675L7.95084 7.40625Z" stroke="white" stroke-width="0.25"/>
</g>
<defs>
<filter id="filter0_d_115_116" x="2.5457" y="3.19957" width="11.7858" height="17.5884" filterUnits="userSpaceOnUse" color-interpolation-filters="sRGB">
<feFlood flood-opacity="0" result="BackgroundImageFix"/>
<feColorMatrix in="SourceAlpha" type="matrix" values="0 0 0 0 0 0 0 0 0 0 0 0 0 0 0 0 0 0 127 0" result="hardAlpha"/>
<feOffset dy="4"/>
<feGaussianBlur stdDeviation="2"/>
<feComposite in2="hardAlpha" operator="out"/>
<feColorMatrix type="matrix" values="0 0 0 0 0 0 0 0 0 0 0 0 0 0 0 0 0 0 0.25 0"/>
<feBlend mode="normal" in2="BackgroundImageFix" result="effect1_dropShadow_115_116"/>
<feBlend mode="normal" in="SourceGraphic" in2="effect1_dropShadow_115_116" result="shape"/>
</filter>
</defs>
</svg>
