<svg width="24" height="24" viewBox="0 0 24 24" fill="none" xmlns="http://www.w3.org/2000/svg">
<g clip-path="url(#clip0_182_390)">
<path d="M12.023 23.2999C18.2638 23.2871 23.3127 18.2177 23.3 11.9769C23.2873 5.73607 18.2178 0.687196 11.977 0.699899C5.73617 0.712602 0.6873 5.78207 0.700003 12.0229C0.712707 18.2637 5.78218 23.3126 12.023 23.2999Z" stroke="#F2F2F2" stroke-width="1.5" stroke-miterlimit="10" stroke-linecap="round" stroke-linejoin="round"/>
<path d="M12.0058 14.9C8.50585 14.9071 5.50993 16.9132 4.01604 19.9162C6.02031 22.0122 8.92274 23.2063 12.0227 23.2C15.1227 23.1936 18.0201 21.8877 20.016 19.8837C18.5101 16.9867 15.5058 14.8929 12.0058 14.9Z" stroke="#F2F2F2" stroke-width="1.5" stroke-miterlimit="10" stroke-linecap="round" stroke-linejoin="round"/>
<path d="M12.0006 12.2998C13.9889 12.2958 15.5973 10.6807 15.5933 8.69251C15.5893 6.70429 13.9742 5.0958 11.986 5.09985C9.99776 5.1039 8.38927 6.71895 8.39331 8.70717C8.39736 10.6954 10.0124 12.3039 12.0006 12.2998Z" stroke="#F2F2F2" stroke-width="1.5" stroke-miterlimit="10" stroke-linecap="round" stroke-linejoin="round"/>
</g>
<defs>
<clipPath id="clip0_182_390">
<rect width="24" height="24" fill="white"/>
</clipPath>
</defs>
</svg>
