<svg width="25" height="24" viewBox="0 0 25 24" fill="none" xmlns="http://www.w3.org/2000/svg">
<path d="M4.25 11V14C4.25 17.7712 4.25 19.6569 5.42157 20.8284C6.59315 22 8.47876 22 12.25 22H13.25C17.0212 22 18.9069 22 20.0784 20.8284C21.25 19.6569 21.25 17.7712 21.25 14V11" stroke="#F2F2F2" stroke-width="1.5"/>
<path d="M10.25 2H15.25L15.9018 8.51737C16.0882 10.382 14.624 12 12.75 12C10.8761 12 9.41184 10.382 9.5983 8.51737L10.25 2Z" stroke="#F2F2F2" stroke-width="1.5"/>
<path d="M4.07975 5.35133C4.25783 4.46093 4.34687 4.01573 4.52791 3.65484C4.90938 2.89439 5.59579 2.33168 6.41628 2.10675C6.80567 2 7.25969 2 8.16771 2H10.25L9.52549 9.24527C9.36911 10.8091 8.05318 12 6.48155 12C4.5511 12 3.10324 10.2339 3.48183 8.34093L4.07975 5.35133Z" stroke="#F2F2F2" stroke-width="1.5"/>
<path d="M21.4203 5.35133C21.2422 4.46093 21.1531 4.01573 20.9721 3.65484C20.5906 2.89439 19.9042 2.33168 19.0837 2.10675C18.6943 2 18.2403 2 17.3323 2H15.25L15.9745 9.24527C16.1309 10.8091 17.4468 12 19.0185 12C20.9489 12 22.3968 10.2339 22.0182 8.34093L21.4203 5.35133Z" stroke="#F2F2F2" stroke-width="1.5"/>
<path d="M10.25 21.5V18.5C10.25 17.5654 10.25 17.0981 10.451 16.75C10.5826 16.522 10.772 16.3326 11 16.201C11.3481 16 11.8154 16 12.75 16C13.6846 16 14.1519 16 14.5 16.201C14.728 16.3326 14.9174 16.522 15.049 16.75C15.25 17.0981 15.25 17.5654 15.25 18.5V21.5" stroke="#F2F2F2" stroke-width="1.5" stroke-linecap="round"/>
</svg>
